<?xml version="1.0" encoding="UTF-8"?>
<!DOCTYPE svg PUBLIC "-//W3C//DTD SVG 1.1//EN" "http://www.w3.org/Graphics/SVG/1.1/DTD/svg11.dtd">
<svg xmlns="http://www.w3.org/2000/svg" version="1.1" width="2045px" height="2048px" style="shape-rendering:geometricPrecision; text-rendering:geometricPrecision; image-rendering:optimizeQuality; fill-rule:evenodd; clip-rule:evenodd" xmlns:xlink="http://www.w3.org/1999/xlink">
<g><path style="opacity:0.991" fill="#d7b130" d="M 882.5,-0.5 C 883.833,-0.5 885.167,-0.5 886.5,-0.5C 902.955,6.06186 918.622,14.2285 933.5,24C 937.817,28.7971 940.984,34.2971 943,40.5C 961.047,283.113 978.38,525.779 995,768.5C 995.556,777.73 997.222,786.73 1000,795.5C 1008.81,803.615 1018.65,804.782 1029.5,799C 1034.13,794.384 1036.96,788.884 1038,782.5C 1042.11,729.841 1046.11,677.175 1050,624.5C 1060.93,430.809 1072.26,237.142 1084,43.5C 1088.02,35.1461 1093.85,28.3128 1101.5,23C 1116.28,14.6123 1131.28,6.77897 1146.5,-0.5C 1147.83,-0.5 1149.17,-0.5 1150.5,-0.5C 1165.6,8.75737 1178.77,20.424 1190,34.5C 1192.59,38.674 1194.92,43.0074 1197,47.5C 1197.4,53.856 1197.07,60.1893 1196,66.5C 1152.05,303.905 1107.72,541.238 1063,778.5C 1056.08,813.205 1035.25,827.372 1000.5,821C 993.9,817.395 987.566,813.395 981.5,809C 977.29,802.039 974.457,794.539 973,786.5C 933.388,569.775 891.722,353.442 848,137.5C 842.965,107.927 838.965,78.2602 836,48.5C 838.009,41.4818 841.343,35.1485 846,29.5C 857.225,18.1668 869.392,8.16685 882.5,-0.5 Z"/></g>
<g><path style="opacity:0.991" fill="#d7b130" d="M 622.5,71.5 C 637.93,71.4177 653.263,72.5843 668.5,75C 678.13,76.3981 686.297,80.5647 693,87.5C 757.33,280.489 821.663,473.489 886,666.5C 901.51,712.7 919.177,758.034 939,802.5C 958.425,830.214 985.092,844.547 1019,845.5C 1046.45,843.607 1069.45,832.607 1088,812.5C 1096.65,793.564 1104.31,774.23 1111,754.5C 1183,545.822 1255,337.156 1327,128.5C 1330.61,118.341 1334.61,108.341 1339,98.5C 1349.57,93.3976 1360.74,90.231 1372.5,89C 1384.47,87.5567 1396.47,87.2234 1408.5,88C 1423.31,104.451 1432.64,123.617 1436.5,145.5C 1329.73,365.378 1223.23,585.378 1117,805.5C 1087.33,852.629 1044.83,871.796 989.5,863C 955.294,853.011 929.128,832.845 911,802.5C 805.061,582.288 699.394,361.955 594,141.5C 590.716,132.848 590.716,124.181 594,115.5C 601.269,99.2717 610.769,84.6051 622.5,71.5 Z"/></g>
<g><path style="opacity:0.991" fill="#d7b130" d="M 408.5,200.5 C 424.17,200.333 439.837,200.5 455.5,201C 460.263,203.798 464.763,206.964 469,210.5C 589.06,391.562 708.726,572.896 828,754.5C 848.368,787.554 872.535,817.72 900.5,845C 924.366,863.859 951.366,876.193 981.5,882C 1005.83,882.667 1030.17,882.667 1054.5,882C 1086.26,875.449 1114.92,862.449 1140.5,843C 1145.68,837.652 1151.01,832.485 1156.5,827.5C 1271.2,653.302 1385.7,478.969 1500,304.5C 1516.29,280.753 1532.46,256.92 1548.5,233C 1556.54,229.209 1564.87,226.209 1573.5,224C 1591.57,223.168 1609.57,223.668 1627.5,225.5C 1632.68,237.532 1637.18,249.865 1641,262.5C 1642.85,274.101 1643.52,285.768 1643,297.5C 1640.31,305.519 1635.98,312.519 1630,318.5C 1474.5,496.667 1319,674.833 1163.5,853C 1101.62,903.311 1031.96,917.978 954.5,897C 914.938,884.432 881.438,862.599 854,831.5C 694.915,644.42 536.582,456.753 379,268.5C 376.262,260.931 375.928,253.265 378,245.5C 381.601,230.692 386.767,216.526 393.5,203C 398.643,202.162 403.643,201.328 408.5,200.5 Z"/></g>
<g><path style="opacity:0.991" fill="#d7b130" d="M 247.5,379.5 C 257.839,379.334 268.172,379.5 278.5,380C 295.453,392.618 312.12,405.618 328.5,419C 385.728,468.556 442.062,519.223 497.5,571C 519.128,588.959 540.461,607.293 561.5,626C 640.167,697.333 718.833,768.667 797.5,840C 845.056,882.107 900.389,908.773 963.5,920C 1001.67,927.287 1040,928.287 1078.5,923C 1125.21,912.66 1168.21,893.994 1207.5,867C 1387.21,713.473 1566.54,559.473 1745.5,405C 1759.66,399.434 1774,399.101 1788.5,404C 1798.5,407.333 1808.5,410.667 1818.5,414C 1820.88,419.564 1822.38,425.397 1823,431.5C 1824.79,444.117 1825.46,456.784 1825,469.5C 1823.33,474.833 1821.67,480.167 1820,485.5C 1814.46,490.711 1808.62,495.544 1802.5,500C 1602.58,632.911 1402.92,766.244 1203.5,900C 1152.84,928.105 1098.51,943.439 1040.5,946C 968.253,951.769 900.92,936.436 838.5,900C 819.833,888 801.167,876 782.5,864C 719.775,820.276 656.775,776.943 593.5,734C 466.167,648 338.833,562 211.5,476C 204.549,471.364 200.382,464.864 199,456.5C 197.486,435.623 198.82,414.956 203,394.5C 217.277,387.574 232.111,382.574 247.5,379.5 Z"/></g>
<g><path style="opacity:0.99" fill="#d7b130" d="M 1901.5,601.5 C 1911.15,600.611 1920.48,601.778 1929.5,605C 1946.37,613.543 1961.87,624.043 1976,636.5C 1973.72,659.619 1967.39,681.619 1957,702.5C 1952.83,706 1948.67,709.5 1944.5,713C 1914.4,724.923 1884.07,736.256 1853.5,747C 1761.7,776.934 1670.03,807.268 1578.5,838C 1488.89,866.868 1399.23,895.535 1309.5,924C 1216.54,951.645 1146.04,1007.48 1098,1091.5C 1077.45,1127.81 1065.78,1166.81 1063,1208.5C 1061.96,1229.16 1061.63,1249.83 1062,1270.5C 1105,1494.5 1148,1718.5 1191,1942.5C 1192.83,1953.12 1194.33,1963.79 1195.5,1974.5C 1192.22,1982.39 1188.39,1990.06 1184,1997.5C 1174.02,2008.82 1162.85,2018.66 1150.5,2027C 1131.45,2023.14 1114.12,2015.47 1098.5,2004C 1089.27,1996.36 1084.77,1986.53 1085,1974.5C 1069.05,1738.83 1053.05,1503.16 1037,1267.5C 1033.84,1219.95 1040.84,1173.95 1058,1129.5C 1064.39,1113.05 1071.06,1096.72 1078,1080.5C 1095.79,1052.71 1115.12,1026.05 1136,1000.5C 1162.64,973.842 1192.14,951.009 1224.5,932C 1342.83,875 1461.17,818 1579.5,761C 1687.3,708.602 1794.63,655.435 1901.5,601.5 Z"/></g>
<g><path style="opacity:0.99" fill="#d7b130" d="M 870.5,2047.5 C 869.167,2047.5 867.833,2047.5 866.5,2047.5C 855.202,2035.7 843.702,2024.03 832,2012.5C 828.333,2006.5 824.667,2000.5 821,1994.5C 819.978,1992.3 819.478,1989.96 819.5,1987.5C 823.374,1951.92 828.874,1916.59 836,1881.5C 876.694,1681.7 918.027,1482.03 960,1282.5C 969.022,1190.24 946.689,1106.58 893,1031.5C 875.382,1008.88 854.882,989.38 831.5,973C 816.336,962.581 800.669,952.915 784.5,944C 765.833,935.834 746.833,928.501 727.5,922C 545.092,859.531 362.759,796.864 180.5,734C 154.604,725.257 128.937,715.924 103.5,706C 95.948,700.087 90.448,692.587 87,683.5C 81.2788,668.95 77.6121,653.95 76,638.5C 85.9208,629.242 96.4208,620.742 107.5,613C 113.046,610.06 118.713,607.394 124.5,605C 131.099,603.504 137.766,603.171 144.5,604C 368.782,714.199 593.115,824.199 817.5,934C 870.438,967.934 911.938,1012.43 942,1067.5C 964.074,1111.05 978.074,1157.05 984,1205.5C 984.641,1220.33 985.141,1235.16 985.5,1250C 968.935,1498.14 952.769,1746.3 937,1994.5C 935.955,2005.42 931.122,2014.26 922.5,2021C 906.073,2031.71 888.74,2040.55 870.5,2047.5 Z"/></g>
<g><path style="opacity:0.99" fill="#d7b131" d="M 70.5,848.5 C 306.191,892.805 541.857,937.305 777.5,982C 842.744,1004.58 888.577,1047.74 915,1111.5C 919.738,1125.71 924.071,1140.05 928,1154.5C 929.662,1167.29 930.829,1180.12 931.5,1193C 930.634,1207.52 929.468,1222.02 928,1236.5C 843.644,1477.24 758.31,1717.57 672,1957.5C 667.574,1963.72 661.574,1967.72 654,1969.5C 638.52,1974.44 622.687,1976.61 606.5,1976C 595.704,1962.26 586.537,1947.42 579,1931.5C 576.574,1925.71 575.574,1919.71 576,1913.5C 668.456,1724.59 761.456,1535.92 855,1347.5C 868.88,1319.07 882.214,1290.41 895,1261.5C 917.204,1205.94 913.871,1151.94 885,1099.5C 867.417,1066.25 842.583,1039.75 810.5,1020C 798.516,1013.84 786.183,1008.51 773.5,1004C 534.189,990.317 294.856,976.984 55.5,964C 46.7509,958.586 39.2509,951.753 33,943.5C 23.4715,929.945 15.6382,915.445 9.5,900C 9.62515,898.373 10.1251,896.873 11,895.5C 23.2037,880.296 37.0371,866.796 52.5,855C 58.3009,851.903 64.3009,849.736 70.5,848.5 Z"/></g>
<g><path style="opacity:0.99" fill="#d7b130" d="M 2044.5,893.5 C 2044.5,895.167 2044.5,896.833 2044.5,898.5C 2038.43,913.299 2031.27,927.632 2023,941.5C 2018.88,946.325 2014.38,950.825 2009.5,955C 2007.83,955.333 2006.17,955.667 2004.5,956C 1785.21,970.997 1565.88,985.33 1346.5,999C 1317.92,1000.29 1289.59,1003.62 1261.5,1009C 1225.4,1016.47 1195.23,1033.97 1171,1061.5C 1142.29,1093.58 1123.62,1130.92 1115,1173.5C 1112.69,1196.93 1114.69,1219.93 1121,1242.5C 1136.46,1275.41 1152.46,1308.08 1169,1340.5C 1259.41,1519.66 1350.08,1698.66 1441,1877.5C 1441.84,1886.22 1441.51,1894.89 1440,1903.5C 1432.29,1921.92 1422.79,1939.26 1411.5,1955.5C 1391.54,1954.18 1372.2,1949.68 1353.5,1942C 1343.79,1937.75 1336.63,1930.91 1332,1921.5C 1259.8,1712.57 1187.8,1503.57 1116,1294.5C 1110.59,1278.6 1104.59,1262.93 1098,1247.5C 1082.51,1154.29 1111.67,1078.45 1185.5,1020C 1217.03,996.916 1252.36,983.249 1291.5,979C 1522.93,937.515 1754.26,895.515 1985.5,853C 1995.53,850.842 2004.53,852.842 2012.5,859C 2024.14,869.795 2034.8,881.295 2044.5,893.5 Z"/></g>
<g><path style="opacity:0.991" fill="#d7b130" d="M 2044.5,1156.5 C 2044.5,1158.83 2044.5,1161.17 2044.5,1163.5C 2037.27,1174.28 2029.77,1184.94 2022,1195.5C 2016.1,1202.07 2009.6,1207.91 2002.5,1213C 2000.33,1213.17 1998.17,1213.33 1996,1213.5C 1975.71,1210.78 1955.54,1207.28 1935.5,1203C 1757.28,1166.16 1578.94,1129.82 1400.5,1094C 1362.26,1086.79 1323.93,1080.13 1285.5,1074C 1240.84,1064.1 1205.34,1077.6 1179,1114.5C 1160.83,1143.94 1159.83,1173.94 1176,1204.5C 1185,1215.5 1194,1226.5 1203,1237.5C 1355.71,1412.54 1508.04,1587.87 1660,1763.5C 1663.14,1771.78 1663.14,1780.11 1660,1788.5C 1655.1,1804.22 1648.1,1818.88 1639,1832.5C 1635.73,1834.1 1632.23,1834.93 1628.5,1835C 1615.84,1836.07 1603.18,1836.4 1590.5,1836C 1583.77,1833.8 1577.44,1830.8 1571.5,1827C 1469.61,1677.44 1368.11,1527.61 1267,1377.5C 1232.91,1327.66 1198.58,1277.99 1164,1228.5C 1136.22,1183.08 1137.56,1138.41 1168,1094.5C 1195.23,1061.72 1230.23,1045.72 1273,1046.5C 1515.84,1064.56 1758.67,1082.73 2001.5,1101C 2004.29,1101.24 2006.96,1101.91 2009.5,1103C 2018.14,1109.3 2024.97,1117.14 2030,1126.5C 2035.15,1136.47 2039.99,1146.47 2044.5,1156.5 Z"/></g>
<g><path style="opacity:0.99" fill="#d7b130" d="M -0.5,1160.5 C -0.5,1159.17 -0.5,1157.83 -0.5,1156.5C 6.12342,1139.37 15.4568,1123.87 27.5,1110C 31.3869,1106.89 35.7202,1104.56 40.5,1103C 256.156,1086.86 471.823,1070.86 687.5,1055C 711.395,1053.09 735.229,1050.59 759,1047.5C 822.356,1048.85 863.356,1079.85 882,1140.5C 882.667,1156.17 882.667,1171.83 882,1187.5C 876.822,1208.18 868.155,1227.18 856,1244.5C 720.942,1442.56 586.275,1640.89 452,1839.5C 442.42,1847.9 431.253,1850.9 418.5,1848.5C 408.143,1848.46 397.81,1847.96 387.5,1847C 384.204,1846.54 381.037,1845.71 378,1844.5C 370.51,1829.85 363.843,1814.85 358,1799.5C 354.282,1790.48 354.949,1781.81 360,1773.5C 478.295,1638.87 596.962,1504.54 716,1370.5C 737.43,1345.31 759.097,1320.31 781,1295.5C 801.24,1270.68 821.24,1245.68 841,1220.5C 865.203,1186.88 867.869,1151.55 849,1114.5C 834.267,1091.1 813.433,1076.27 786.5,1070C 780.82,1069.74 775.154,1070.07 769.5,1071C 528.864,1118.03 288.198,1164.86 47.5,1211.5C 39.1212,1210.32 32.2879,1206.32 27,1199.5C 17.3194,1186.78 8.15273,1173.78 -0.5,1160.5 Z"/></g>
<g><path style="opacity:0.991" fill="#d7b131" d="M 796.5,1102.5 C 808.544,1104.44 818.378,1110.1 826,1119.5C 829.333,1124.83 832.667,1130.17 836,1135.5C 837.417,1148.58 835.751,1161.25 831,1173.5C 825.833,1178.67 820.667,1183.83 815.5,1189C 695.948,1290.21 577.282,1392.55 459.5,1496C 395.015,1554.49 329.349,1611.49 262.5,1667C 255.681,1672.07 248.014,1674.91 239.5,1675.5C 220.562,1672.47 203.062,1665.8 187,1655.5C 183.771,1641.34 181.604,1627 180.5,1612.5C 181.681,1605.43 183.181,1598.43 185,1591.5C 187.833,1588.67 190.667,1585.83 193.5,1583C 388.285,1448.88 583.618,1315.55 779.5,1183C 789.693,1175.31 800.027,1167.81 810.5,1160.5C 812.5,1156.5 814.5,1152.5 816.5,1148.5C 814.612,1139.55 810.279,1132.05 803.5,1126C 798.833,1125.33 794.167,1125.33 789.5,1126C 702.13,1168.18 615.13,1211.18 528.5,1255C 394.322,1323.26 259.989,1391.26 125.5,1459C 120.167,1459.67 114.833,1459.67 109.5,1459C 89.242,1451.05 70.742,1440.22 54,1426.5C 52.9414,1405.13 57.2747,1384.8 67,1365.5C 69.1667,1362.67 71.3333,1359.83 73.5,1357C 301.726,1275.05 530.059,1193.39 758.5,1112C 771.063,1107.86 783.73,1104.69 796.5,1102.5 Z"/></g>
<g><path style="opacity:0.991" fill="#d7b130" d="M 1237.5,1104.5 C 1445.38,1178.41 1654.05,1250.24 1863.5,1320C 1893.91,1331.14 1924.24,1342.47 1954.5,1354C 1958.33,1357.83 1962.17,1361.67 1966,1365.5C 1969.06,1372.01 1971.72,1378.67 1974,1385.5C 1974.83,1397.17 1975.67,1408.84 1976.5,1420.5C 1976.17,1421.83 1975.83,1423.17 1975.5,1424.5C 1963.37,1435.07 1950.04,1443.9 1935.5,1451C 1928.45,1454.09 1921.11,1455.09 1913.5,1454C 1900.6,1448.88 1887.93,1443.22 1875.5,1437C 1667.71,1336.94 1460.04,1236.61 1252.5,1136C 1245.7,1132.93 1238.7,1130.43 1231.5,1128.5C 1220.16,1131.17 1213.16,1138.17 1210.5,1149.5C 1211.18,1156.03 1213.85,1161.53 1218.5,1166C 1274.89,1204.72 1331.56,1243.06 1388.5,1281C 1536.34,1377.75 1684,1474.75 1831.5,1572C 1838.7,1577.56 1843.53,1584.73 1846,1593.5C 1846.17,1608.17 1845.84,1622.84 1845,1637.5C 1844.84,1642.92 1844.17,1648.25 1843,1653.5C 1831.34,1659.83 1819.17,1665 1806.5,1669C 1796.18,1669.96 1785.84,1670.29 1775.5,1670C 1773.33,1668.41 1771,1667.08 1768.5,1666C 1582.87,1508.04 1397.54,1349.71 1212.5,1191C 1203.26,1182.99 1196.09,1173.49 1191,1162.5C 1190.33,1154.5 1190.33,1146.5 1191,1138.5C 1195.06,1130.22 1200.22,1122.72 1206.5,1116C 1216,1109.67 1226.33,1105.84 1237.5,1104.5 Z"/></g>
</svg>
